<svg xmlns="http://www.w3.org/2000/svg" width="150" height="50" viewBox="0,0,150,50"><path fill="#222" d="M121.98 40.17L122.06 40.24L121.93 40.12Q120.19 40.17 118.52 40.74L118.55 40.77L118.48 40.70Q119.07 37.14 119.18 34.02L119.06 33.90L119.02 33.86Q119.24 30.92 119.01 27.27L119.03 27.28L118.94 27.19Q117.59 26.87 116.83 26.49L116.92 26.58L116.48 23.51L116.38 23.41Q117.30 24.22 118.90 24.79L118.76 24.65L118.83 24.72Q118.54 22.53 118.13 19.79L118.15 19.82L118.11 19.77Q120.51 20.58 122.15 20.43L122.10 20.38L121.90 24.90L122.02 25.02Q123.41 24.92 124.74 24.43L124.62 24.30L124.64 24.33Q124.76 25.40 124.54 27.15L124.48 27.10L124.45 27.07Q122.85 27.34 121.83 27.34L121.93 27.44L121.83 27.34Q121.96 29.64 121.96 33.91L121.84 33.78L121.86 33.80Q121.96 38.06 122.04 40.23ZM125.12 23.82L125.06 23.76L125.03 23.73Q124.91 23.99 124.30 24.21L124.30 24.22L124.58 21.34L124.72 21.48Q123.77 21.63 122.36 21.86L122.50 21.99L122.35 21.85Q122.34 21.15 122.49 19.78L122.59 19.88L122.50 19.79Q121.94 19.92 121.37 19.92L121.46 20.00L121.39 19.93Q119.22 19.89 117.58 19.17L117.53 19.12L117.54 19.13Q118.17 21.74 118.43 24.21L118.34 24.12L118.37 24.14Q117.59 23.90 116.07 22.87L116.07 22.88L116.01 22.81Q116.25 24.01 116.48 26.71L116.57 26.80L116.65 26.88Q116.95 26.95 118.13 27.37L118.16 27.40L118.23 27.48Q118.14 27.99 118.18 29.40L118.20 29.42L118.67 29.55L118.67 29.47L118.79 29.59Q118.84 30.82 118.84 32.00L118.82 31.99L118.71 31.88Q118.89 37.00 118.09 41.34L117.92 41.17L117.98 41.23Q118.15 41.10 120.10 40.57L120.16 40.63L120.05 40.52Q120.09 41.21 119.97 42.58L120.01 42.62L119.98 42.58Q120.93 42.66 121.73 42.66L121.68 42.61L121.65 42.58Q123.44 42.66 125.08 43.23L125.03 43.18L125.00 43.15Q123.69 37.46 123.88 29.54L123.86 29.53L126.30 29.18L126.28 29.17Q126.27 28.17 126.35 27.14L126.43 27.23L126.55 25.13L126.52 25.10Q126.02 25.44 124.84 25.90L124.90 25.96L124.80 25.85Q125.17 24.59 125.09 24.25L125.07 24.22L125.00 24.15Q124.96 23.93 125.04 23.74Z"/><path d="M16 27 C77 29,81 6,137 48" stroke="#444" fill="none"/><path d="M16 24 C58 18,73 18,139 14" stroke="#444" fill="none"/><path fill="#333" d="M43.61 19.29L43.60 19.29L43.59 19.28Q44.42 23.49 44.57 27.07L44.67 27.17L44.69 27.19Q45.78 27.25 46.84 27.25L46.83 27.24L48.97 27.17L49.12 27.32Q50.08 27.21 50.96 25.80L50.86 25.71L50.93 25.77Q51.69 24.64 51.80 23.45L51.88 23.53L51.86 23.51Q52.10 20.36 47.87 19.86L47.98 19.97L47.87 19.86Q46.32 19.95 43.70 19.38ZM44.77 30.01L44.62 29.86L44.73 29.97Q44.70 36.22 43.56 40.64L43.54 40.62L43.52 40.60Q42.14 41.09 39.82 42.15L39.74 42.07L39.65 41.98Q42.01 35.32 41.75 28.05L41.77 28.07L41.91 28.21Q41.61 20.83 38.83 14.40L38.68 14.25L38.63 14.20Q42.97 17.17 49.21 17.17L49.10 17.06L49.09 17.05Q55.15 17.06 55.30 20.52L55.34 20.55L55.31 20.53Q55.42 22.99 54.43 25.66L54.48 25.71L54.37 25.60Q53.90 26.66 52.95 27.87L53.11 28.03L53.06 27.98Q51.77 29.63 49.22 29.89L49.14 29.81L49.13 29.80Q46.88 29.83 44.63 29.87ZM50.79 32.15L50.83 32.19L50.81 32.16Q55.07 32.51 56.33 27.71L56.15 27.54L56.34 27.72Q57.20 23.98 57.05 21.96L56.99 21.91L57.09 22.00Q56.84 20.34 56.08 19.35L56.10 19.37L56.18 19.46Q55.80 19.07 55.30 18.84L55.40 18.94L55.38 18.92Q55.28 18.67 54.67 17.90L54.81 18.05L54.80 18.04Q53.07 16.54 49.11 16.54L49.21 16.63L49.12 16.55Q42.22 16.54 38.00 13.38L38.16 13.54L38.15 13.53Q41.16 20.46 41.43 27.92L41.46 27.95L41.42 27.91Q41.86 35.74 39.20 42.82L39.08 42.71L39.17 42.80Q40.12 42.03 41.11 41.65L41.27 41.82L40.82 42.89L40.81 42.88Q40.72 43.55 40.45 44.12L40.43 44.09L40.47 44.13Q42.90 43.10 45.79 42.56L45.67 42.44L45.67 42.44Q46.53 36.95 46.60 32.23L46.61 32.23L46.59 32.21Q47.65 32.10 48.64 32.10L48.73 32.18L48.67 32.12Q50.13 32.25 50.93 32.29ZM49.84 22.21L49.80 22.17L49.85 22.23Q50.31 22.19 51.30 22.42L51.31 22.42L51.28 22.39Q51.42 22.65 51.46 22.95L51.52 23.02L51.47 22.96Q51.63 23.36 51.56 23.63L51.54 23.61L51.44 23.51Q51.41 24.82 50.69 25.69L50.56 25.56L50.61 25.61Q50.05 26.69 49.03 26.88L49.01 26.87L49.01 26.87Q48.36 26.94 46.72 26.94L46.58 26.79L46.70 26.92Q46.63 24.60 46.40 22.24L46.46 22.30L48.10 22.26L48.11 22.28Q49.02 22.35 49.90 22.27Z"/><path fill="#444" d="M30.53 30.40L30.42 30.30L30.44 30.32Q30.57 29.95 30.53 29.54L30.52 29.52L30.64 29.64Q30.46 29.15 30.15 28.96L30.14 28.95L30.24 29.05Q29.52 28.48 28.64 28.63L28.55 28.54L28.65 28.64Q27.44 28.50 25.80 29.60L25.83 29.63L25.86 29.66Q24.38 30.50 24.38 31.68L24.42 31.72L24.36 31.66Q24.38 32.94 24.38 36.25L24.36 36.23L24.43 36.30Q24.34 38.79 24.49 40.81L24.48 40.80L24.46 40.79Q22.75 40.79 22.75 40.79L22.76 40.79L22.88 40.91Q21.82 40.81 21.09 40.88L21.06 40.85L21.07 40.86Q21.51 38.36 21.58 36.12L21.68 36.22L21.56 36.09Q21.69 31.43 21.04 30.13L21.18 30.27L21.18 30.27Q20.77 29.56 20.20 29.25L20.31 29.36L20.37 29.42Q19.53 28.69 17.97 28.58L17.98 28.59L17.94 28.56Q15.80 28.20 15.27 29.80L15.39 29.92L15.29 29.82Q15.10 30.28 15.21 30.77L15.29 30.85L15.22 30.79Q15.86 33.52 15.52 36.29L15.62 36.40L15.55 36.32Q15.38 39.27 13.97 41.71L13.86 41.61L13.89 41.63Q12.91 41.84 10.82 42.26L10.86 42.30L10.78 42.22Q13.35 39.04 13.35 34.74L13.26 34.64L13.22 34.61Q13.30 28.83 9.27 24.60L9.30 24.63L9.18 24.52Q10.03 24.91 10.98 25.14L10.89 25.04L12.58 25.40L12.59 25.41Q13.27 26.24 14.14 27.92L14.03 27.81L14.07 27.84Q14.16 25.88 16.60 25.84L16.61 25.85L16.66 25.90Q16.77 25.82 17.76 25.90L17.71 25.85L17.88 26.01Q22.71 26.16 23.85 28.98L23.88 29.01L23.97 29.10Q25.68 26.43 30.71 25.90L30.60 25.79L30.68 25.87Q31.45 25.77 32.32 25.88L32.24 25.79L32.33 25.89Q34.48 26.02 34.33 27.58L34.26 27.51L34.41 27.66Q34.23 28.21 33.96 28.97L33.95 28.95L34.03 29.03Q32.54 31.96 32.77 35.50L32.81 35.55L32.82 35.55Q33.05 39.05 34.95 41.87L34.94 41.86L34.99 41.91Q33.22 41.48 31.40 41.25L31.35 41.20L31.49 41.34Q30.22 38.74 30.03 35.96L29.95 35.88L29.91 35.84Q29.80 33.07 30.45 30.33ZM31.10 41.56L31.20 41.66L31.20 41.66Q31.82 41.63 33.15 41.82L33.30 41.97L33.19 41.86Q33.76 42.62 34.90 44.03L34.98 44.11L34.85 43.98Q37.83 44.60 39.93 45.25L39.89 45.21L39.94 45.26Q34.86 41.28 34.59 34.77L34.67 34.85L34.59 34.77Q34.49 32.66 35.10 30.75L35.09 30.74L35.08 30.73Q35.29 29.84 35.29 29.11L35.44 29.26L35.44 29.26Q35.47 28.38 34.86 27.81L34.74 27.69L34.75 27.66L34.82 27.73Q34.90 27.24 34.82 26.74L34.85 26.77L34.81 26.73Q34.61 26.11 34.16 25.85L34.09 25.78L34.28 25.97Q33.42 25.31 32.55 25.27L32.54 25.26L32.62 25.34Q29.72 25.18 27.05 26.13L27.18 26.26L27.11 26.19Q25.10 26.84 23.92 28.25L23.88 28.21L23.90 28.23Q22.51 25.92 17.67 25.58L17.49 25.40L17.60 25.51Q16.99 25.54 16.57 25.54L16.54 25.52L16.39 25.37Q14.51 25.54 13.90 26.80L13.76 26.66L13.75 26.64Q13.61 26.31 12.92 25.25L12.84 25.16L12.79 25.11Q10.31 24.58 8.33 23.93L8.38 23.98L8.30 23.90Q12.98 28.31 12.98 34.59L13.09 34.70L13.09 34.71Q13.05 39.39 10.20 42.85L10.20 42.86L10.16 42.82Q10.53 42.57 11.02 42.50L11.13 42.60L12.11 42.44L12.15 42.49Q11.34 43.42 10.23 44.64L10.19 44.60L10.19 44.59Q11.90 44.36 15.02 43.76L15.09 43.82L14.94 43.67Q17.62 39.57 17.62 34.66L17.79 34.84L17.79 34.84Q17.80 34.04 17.72 33.21L17.63 33.12L17.64 33.12Q17.58 32.38 18.57 31.58L18.56 31.57L18.57 31.62L18.49 31.53Q19.17 31.15 20.35 31.04L20.28 30.97L20.35 31.04Q20.77 31.04 21.08 31.04L21.07 31.04L21.22 31.38L21.06 31.22Q21.37 33.97 21.26 36.33L21.31 36.38L21.25 36.32Q21.20 38.66 20.70 41.33L20.73 41.36L20.75 41.37Q21.70 41.30 21.70 41.30L21.73 41.33L21.66 41.26Q23.01 41.16 22.66 41.16L22.69 41.18L22.68 41.17Q22.76 41.74 22.72 42.20L22.72 42.20L22.86 42.34Q22.82 42.80 22.82 43.30L22.81 43.29L25.30 43.29L25.26 43.26Q26.48 43.23 27.74 43.30L27.69 43.25L27.65 43.21Q26.20 39.59 26.39 33.65L26.36 33.63L26.43 33.69Q26.44 32.56 27.62 31.80L27.62 31.80L27.66 31.84Q28.51 30.98 29.77 30.79L29.86 30.88L29.98 30.69L30.02 30.73Q29.60 32.67 29.60 34.65L29.71 34.76L29.67 34.73Q29.62 38.45 31.15 41.61ZM25.76 30.21L25.78 30.00L25.64 30.19L25.73 30.17Z"/><path fill="#333" d="M95.10 29.88L95.06 29.85L95.05 29.83Q94.92 29.93 94.61 29.93L94.43 29.75L94.43 29.75Q93.24 29.89 91.79 30.73L91.77 30.70L91.80 30.74Q90.39 31.76 90.39 33.67L90.32 33.59L90.46 33.73Q90.40 37.10 91.93 38.44L91.84 38.35L91.88 38.39Q92.92 39.65 95.20 39.65L95.14 39.59L95.20 39.66Q95.43 39.66 95.74 39.66L95.73 39.65L95.69 39.61Q97.38 39.59 98.52 37.95L98.57 38.00L98.66 38.09Q99.70 36.58 99.62 34.79L99.58 34.74L99.55 34.72Q99.58 34.22 99.58 33.80L99.71 33.93L99.55 33.77Q99.57 31.99 98.20 30.83L98.27 30.90L98.23 30.86Q96.92 29.76 95.13 29.91ZM99.59 40.04L99.53 39.99L99.51 39.97Q98.50 41.89 94.77 42.00L94.85 42.08L94.79 42.03Q91.38 42.12 89.78 40.52L89.93 40.66L89.91 40.65Q88.31 38.74 87.51 33.94L87.64 34.07L87.67 34.11Q87.19 32.18 87.19 30.92L87.32 31.05L87.37 31.10Q87.29 29.24 88.02 28.17L88.09 28.24L88.01 28.16Q89.29 26.70 92.26 26.70L92.43 26.87L92.40 26.85Q98.62 26.74 100.53 29.33L100.61 29.41L100.51 29.32Q100.67 28.49 101.09 26.89L101.26 27.06L101.18 26.98Q102.39 26.63 104.83 25.83L104.82 25.83L104.78 25.79Q102.47 31.54 102.24 37.86L102.29 37.91L102.19 37.81Q101.98 43.99 104.11 49.82L104.14 49.85L104.02 49.73Q102.41 49.22 100.62 48.96L100.68 49.02L100.64 48.98Q99.63 44.92 99.51 39.97ZM100.28 49.18L100.42 49.33L100.25 49.16Q101.15 49.49 102.56 49.79L102.40 49.63L102.53 49.77Q102.73 50.46 103.30 51.86L103.25 51.82L103.31 51.87Q105.93 52.63 108.22 53.93L108.08 53.79L108.10 53.81Q104.13 47.29 104.13 38.76L104.10 38.73L104.07 38.70Q104.04 32.31 106.51 26.52L106.63 26.64L106.49 26.51Q105.92 26.92 104.55 27.57L104.55 27.57L104.50 27.52Q104.80 26.72 105.45 25.16L105.40 25.11L105.41 25.12Q104.06 25.86 100.86 26.74L100.75 26.63L100.77 26.65Q100.68 27.24 100.38 28.42L100.30 28.34L100.28 28.33Q98.38 26.54 92.25 26.38L92.24 26.38L92.13 26.27Q88.97 26.23 87.60 27.72L87.71 27.82L87.63 27.74Q86.85 28.87 86.89 30.77L86.95 30.83L86.81 30.69Q86.94 33.72 87.93 37.49L87.96 37.51L88.01 37.57Q88.61 39.92 89.53 40.87L89.56 40.90L89.99 41.33L89.89 41.24Q91.04 43.98 96.48 44.21L96.55 44.28L96.66 44.39Q97.58 44.31 99.40 44.01L99.47 44.07L99.36 43.97Q99.73 46.97 100.34 49.25ZM97.00 32.20L96.87 32.07L96.91 32.11Q98.16 32.29 98.99 32.60L98.93 32.53L98.94 32.54Q99.15 33.09 99.26 33.70L99.14 33.58L99.10 33.54Q99.30 34.19 99.22 34.80L99.26 34.84L99.21 34.80Q99.25 36.74 98.22 38.03L98.17 37.98L98.15 37.96Q97.12 39.52 95.26 39.33L95.16 39.23L95.20 39.27Q93.83 39.20 92.88 38.78L92.93 38.83L92.83 38.73Q92.48 37.92 92.48 36.71L92.58 36.80L92.51 36.74Q92.48 36.40 92.48 36.10L92.60 36.22L92.51 36.13Q92.52 34.38 93.85 33.22L93.88 33.25L93.94 33.31Q95.11 31.99 96.86 32.07Z"/><path d="M5 43 C79 10,77 44,144 7" stroke="#333" fill="none"/><path fill="#222" d="M73.50 32.14L64.29 22.16L64.27 22.14Q65.07 25.79 65.07 29.52L65.07 29.52L65.16 29.61Q65.10 35.53 63.04 41.09L63.00 41.05L63.08 41.13Q62.02 41.40 59.77 42.16L59.76 42.15L59.82 42.21Q62.56 36.34 62.56 29.64L62.63 29.72L62.63 29.72Q62.51 20.95 58.02 13.53L58.03 13.54L58.07 13.58Q58.51 13.76 59.20 14.18L59.22 14.20L59.16 14.14Q71.30 25.40 79.14 34.65L79.12 34.63L79.14 34.65Q78.90 32.28 78.90 29.84L78.75 29.69L78.84 29.79Q78.73 22.44 81.25 16.24L81.23 16.23L81.41 16.40Q83.73 15.87 85.33 15.18L85.34 15.19L85.16 15.01Q81.97 21.30 81.66 28.45L81.67 28.46L81.54 28.33Q81.39 35.83 84.35 42.00L84.21 41.86L84.34 41.98Q83.74 41.88 83.32 41.69L83.21 41.58L83.39 41.76Q78.76 37.74 73.55 32.18L73.54 32.17ZM86.98 45.19L86.97 45.18L86.93 45.15Q87.41 45.32 87.83 45.51L87.83 45.51L88.76 45.94L88.66 45.85Q83.60 38.99 83.60 29.63L83.48 29.51L83.46 29.49Q83.58 22.38 86.90 16.14L86.85 16.09L86.81 16.05Q86.13 16.25 84.72 16.86L84.80 16.93L84.82 16.96Q85.09 16.01 85.93 14.45L85.88 14.40L86.01 14.53Q83.56 15.44 81.13 16.01L81.15 16.02L81.14 16.02Q78.40 22.38 78.40 29.80L78.45 29.85L78.34 29.74Q78.45 31.71 78.64 33.69L78.69 33.74L78.65 33.70Q74.07 28.10 69.32 23.49L69.29 23.47L59.13 13.69L59.21 13.77Q58.63 13.45 57.41 12.88L57.37 12.84L57.27 12.74Q62.20 20.53 62.20 29.63L62.15 29.57L62.14 29.56Q62.20 36.74 59.11 42.76L59.07 42.71L59.09 42.74Q59.34 42.57 60.98 41.96L61.03 42.01L61.13 42.11Q60.81 42.90 59.98 44.38L59.84 44.24L59.87 44.28Q61.27 43.81 64.74 43.02L64.71 42.98L64.77 43.05Q67.01 36.84 67.01 29.64L67.10 29.73L66.96 29.59Q67.01 27.55 66.78 25.42L66.74 25.37L66.76 25.39Q78.30 38.27 86.91 45.12Z"/></svg>